# xmcd
#
# Track frame offsets:
#	150
#	3900
#	21222
#	36965
#	51825
#	72137
#	89500
#	108987
#	134797
#	153207
#	169490
#	179870
#
# Disc length: 2648 seconds
#
# Revision: 1
# Processed by: cddbd v1.5.1PL2 Copyright (c) Steve Scherf et al.
# Submitted via: EasyCDDAExtractor 9.0.0.1
#
DISCID=a70a560c
DTITLE=Tom Morrell and The Time-Warp Tophands - How The West Was Swung, Vol.04 (
DTITLE=Pterodactyl Tales)
DYEAR=1900
DGENRE=Country
TTITLE0=Booking Agent Logic
TTITLE1=Rosetta
TTITLE2=Dinosaur Droppings
TTITLE3=Room Full Of Reptiles (Roses)
TTITLE4=Moo-Indigo (Mood Indigo)
TTITLE5=Pterodactyl Tales
TTITLE6=Mutton Swing (Moten Swing)
TTITLE7=It Had To Be Ewe (You)
TTITLE8=Brontosaur Breath (Painted Rhythm)
TTITLE9=I Can't Give You Anything But Love
TTITLE10=The Things I Might Have Been
TTITLE11=Moo-sette (Bluesette)
EXTD=
EXTT0=
EXTT1=
EXTT2=
EXTT3=
EXTT4=
EXTT5=
EXTT6=
EXTT7=
EXTT8=
EXTT9=
EXTT10=
EXTT11=
PLAYORDER=
